<svg xmlns="http://www.w3.org/2000/svg" viewBox="0 0 256 136">
  <defs>
    <filter id="illo-analytics--blur">
      <feGaussianBlur in="SourceGraphic" stdDeviation="2"></feGaussianBlur>
    </filter>
    <linearGradient id="illo-analytics--a" x1="223.5%" x2="4.58%" y1="133.93%" y2="30.56%">
      <stop offset="0%" stop-color="#FFD7D9"/>
      <stop offset="100%" stop-color="#EFDDF5"/>
    </linearGradient>
    <radialGradient id="illo-analytics--b" cx="70.15%" cy="157.51%" r="159.38%" fx="70.15%" fy="157.51%" gradientTransform="matrix(-.11462 -.98825 .74119 -.15283 -.39 2.5)">
      <stop offset="0%" stop-color="#F6BC00"/>
      <stop offset="28.73%" stop-color="#F6BC00"/>
      <stop offset="59.65%" stop-color="#FB6D77" stop-opacity=".5"/>
      <stop offset="100%" stop-color="#FB6D77" stop-opacity="0"/>
    </radialGradient>
    <linearGradient id="illo-analytics--c" x1="50%" x2="50%" y1="0%" y2="102.02%">
      <stop offset="0%" stop-color="#FB6D77"/>
      <stop offset="48.02%" stop-color="#FB6D77" stop-opacity="0"/>
      <stop offset="66.59%" stop-color="#FB6D77"/>
      <stop offset="100%" stop-color="#FB6D77" stop-opacity="0"/>
    </linearGradient>
  </defs>
  <g fill="none" fill-rule="evenodd" transform="translate(40, 8)">
    <g fill-rule="nonzero">
      <path fill="url(#illo-analytics--a)" d="M34.22 2.2c-6.55.93-13.6 2.45-17.8 8.4C11.77 17.15 12 27.11 13.26 36c1.26 8.87 3.3 18.06 1.44 26.56C11.9 75.5.58 84.12.02 97.66c-.39 9.37 4.96 18.58 11.88 23.34 6.93 4.75 15.1 5.63 22.75 4.63 30.43-3.96 54.38-35 85.12-35.82 14.15-.38 30.43 5.2 41.03-5.48 8.31-8.38 9.21-24.75 3.8-36.95-9.23-20.88-35.35-33.24-52.8-39.48-25.4-9.1-52.07-9.35-77.58-5.7" transform="matrix(-1 0 0 1 168 2)"/>
      <path fill="url(#illo-analytics--b)" fill-opacity=".8" d="M34.22 2.2c-6.55.93-13.6 2.45-17.8 8.4C11.77 17.15 12 27.11 13.26 36c1.26 8.87 3.3 18.06 1.44 26.56C11.9 75.5.58 84.12.02 97.66c-.39 9.37 4.96 18.58 11.88 23.34 6.93 4.75 15.1 5.63 22.75 4.63 30.43-3.96 54.38-35 85.12-35.82 14.15-.38 30.43 5.2 41.03-5.48 8.31-8.38 9.21-24.75 3.8-36.95-9.23-20.88-35.35-33.24-52.8-39.48-25.4-9.1-52.07-9.35-77.58-5.7" transform="matrix(-1 0 0 1 168 2)"/>
    </g>
    <g>
      <path fill="#000" fill-rule="nonzero" filter="url(#illo-analytics--blur)" fill-opacity="0.1" d="M6 7.07A6.07 6.07 0 0 1 12.06 1h93.88A6.07 6.07 0 0 1 112 7.07v63.86a6.07 6.07 0 0 1-6.06 6.07H12.06A6.07 6.07 0 0 1 6 70.93V7.07z"/>
      <path fill="#FFF" d="M7 6.07A6.07 6.07 0 0 1 13.06 0h93.88A6.07 6.07 0 0 1 113 6.07v63.86a6.07 6.07 0 0 1-6.06 6.07H13.06A6.07 6.07 0 0 1 7 69.93V6.07z"/>
      <path fill="#E9EBEB" fill-rule="nonzero" d="M14.56 6.07a1.5 1.5 0 0 1-1.49-1.5c0-.83.67-1.5 1.49-1.5s1.48.67 1.48 1.5c0 .82-.66 1.5-1.48 1.5zm4.51 0a1.5 1.5 0 0 1-1.49-1.5c0-.83.67-1.5 1.49-1.5s1.49.67 1.49 1.5c0 .82-.67 1.5-1.49 1.5zm4.51 0a1.5 1.5 0 0 1-1.48-1.5c0-.83.66-1.5 1.48-1.5s1.49.67 1.49 1.5c0 .82-.67 1.5-1.49 1.5z"/>
      <path fill="url(#illo-analytics--c)" fill-rule="nonzero" d="M100.87 61.7v11.53h-68v-13.7l1.53 8.72 2.05 4.28 2.5-3.74 2.9-2.38 2.1-4.37 4-1.55 3.4 3.94 4.08-3.69 3.37 6.18 4.43 3.72 5.57-2.39 4.03 4.81 4.47-2.42 2.33-6.6 4.76 2.37 2.88-4.78 3.02-4.39 4.96 3.84 5.62.61zm-68-35.64l5.62-.64 4.97-3.2 3 3.77 2.89 4.96 4.76-2.46 2.33 6.84 4.46 2.52 4.04-4.99 5.57 2.47 4.43-3.86 3.37-6.4 4.08 3.83 3.4-4.09 4 1.6 2.1 4.54 2.9 2.46 2.5 3.89 2.05-4.44 1.53-9.1v22.83h-68V26.06z" opacity=".2" transform="translate(6)"/>
      <path fill="#FB6D77" fill-rule="nonzero" d="M88.33 27.96l3.08-3.79c.1-.12.28-.17.43-.1l3.98 1.61c.09.04.16.1.2.2l2.04 4.5 2.9 2.5.07.1 2.04 3.26 1.78-3.9 1.28-8.71a.37.37 0 1 1 .74.1l-1.3 8.77-.03.1-2.08 4.57c-.12.27-.5.3-.65.05l-2.38-3.8-2.91-2.53-.1-.13-2.01-4.45-3.6-1.46-3.08 3.8a.37.37 0 0 1-.58.13l-3.82-3.33-3.02 5.68-.08.1-4.45 4.1a.37.37 0 0 1-.4.06l-5.24-2.46-3.76 4.7a.37.37 0 0 1-.46.09l-4.52-2.33a.37.37 0 0 1-.18-.22l-2.12-6.5-4.4 2.3a.37.37 0 0 1-.49-.15l-2.8-4.75-2.77-3.73-4.63 3.2a.37.37 0 0 1-.17.07l-5.56.6a.37.37 0 0 1-.08-.73l5.47-.6 4.85-3.35a.37.37 0 0 1 .5.08l3 4.05 2.65 4.48 4.47-2.32c.2-.1.45 0 .52.21l2.21 6.77L67 36.92l3.76-4.68c.1-.13.29-.18.44-.1l5.27 2.48 4.22-3.9 3.22-6.03a.37.37 0 0 1 .57-.1l3.86 3.37zm-30.92 35.7l3.86-3.38c.18-.15.46-.1.57.1l3.21 6.04 4.23 3.9 5.27-2.48a.37.37 0 0 1 .44.1l3.76 4.68 4.12-2.12 2.2-6.77a.37.37 0 0 1 .53-.21l4.47 2.32 2.65-4.48 3-4.05c.11-.16.34-.2.5-.08l4.85 3.35 5.47.6a.37.37 0 0 1-.08.74l-5.56-.6a.37.37 0 0 1-.18-.07l-4.62-3.2-2.76 3.72-2.81 4.75a.37.37 0 0 1-.5.14l-4.39-2.28-2.12 6.5c-.03.09-.1.16-.18.2l-4.52 2.34a.37.37 0 0 1-.46-.1l-3.76-4.69-5.24 2.46a.37.37 0 0 1-.4-.06l-4.45-4.1-.08-.1-3.02-5.68-3.82 3.34a.37.37 0 0 1-.59-.15l-3.08-3.78L50.33 62l-2.02 4.45-.09.13-2.91 2.52-2.38 3.8a.37.37 0 0 1-.65-.04L40.2 68.3l-.03-.1-1.3-8.76a.37.37 0 1 1 .73-.1l1.3 8.7 1.77 3.9 2.04-3.27.07-.08 2.9-2.5 2.04-4.52a.37.37 0 0 1 .2-.19l3.98-1.61a.37.37 0 0 1 .43.1l3.08 3.8z"/>
      <path fill="#F7FAFB" fill-rule="nonzero" d="M41 3.07h63.92c1.19 0 2.15 1 2.15 2.25a2.2 2.2 0 0 1-2.15 2.25H41a2.2 2.2 0 0 1-2.16-2.25A2.2 2.2 0 0 1 41 3.07zm-25.77 16.5h16.9c1.2 0 2.17 1 2.17 2.25a2.2 2.2 0 0 1-2.16 2.25H15.23c-1.2 0-2.16-1.01-2.16-2.25a2.2 2.2 0 0 1 2.16-2.25zm0 6h16.9c1.2 0 2.17 1 2.17 2.25a2.2 2.2 0 0 1-2.16 2.25H15.23c-1.2 0-2.16-1.01-2.16-2.25a2.2 2.2 0 0 1 2.16-2.25zm0 6h16.9c1.2 0 2.17 1 2.17 2.25a2.2 2.2 0 0 1-2.16 2.25H15.23c-1.2 0-2.16-1.01-2.16-2.25a2.2 2.2 0 0 1 2.16-2.25zm0 6h16.9c1.2 0 2.17 1 2.17 2.25a2.2 2.2 0 0 1-2.16 2.25H15.23c-1.2 0-2.16-1.01-2.16-2.25a2.2 2.2 0 0 1 2.16-2.25z"/>
    </g>
    <g>
      <path fill="#000" fill-rule="nonzero" filter="url(#illo-analytics--blur)" fill-opacity="0.1" d="M53.34 49.1a6.07 6.07 0 0 1 6.06-6.07h93.88a6.07 6.07 0 0 1 6.06 6.07v63.85a6.07 6.07 0 0 1-6.06 6.08H59.4a6.07 6.07 0 0 1-6.06-6.08V49.1z"/>
      <path fill="#FFF" d="M54.34 48.1a6.07 6.07 0 0 1 6.06-6.07h93.88a6.07 6.07 0 0 1 6.06 6.07v63.85a6.07 6.07 0 0 1-6.06 6.08H60.4a6.07 6.07 0 0 1-6.06-6.08V48.1z"/>
      <path fill="#E9EBEB" fill-rule="nonzero" d="M61.9 48.1a1.5 1.5 0 1 1 0-3 1.5 1.5 0 0 1 0 3zm4.5 0a1.5 1.5 0 1 1 0-3 1.5 1.5 0 0 1 0 3zm4.5 0a1.5 1.5 0 1 1 0-3 1.5 1.5 0 0 1 0 3z"/>
      <path fill="#F7FAFB" fill-rule="nonzero" d="M88.33 45.1h63.92c1.2 0 2.16 1 2.16 2.24a2.2 2.2 0 0 1-2.16 2.25H88.33a2.2 2.2 0 0 1-2.15-2.25 2.2 2.2 0 0 1 2.15-2.25zM62.56 61.6h16.92c1.19 0 2.15 1 2.15 2.24a2.2 2.2 0 0 1-2.15 2.25H62.56c-1.19 0-2.15-1-2.15-2.25a2.2 2.2 0 0 1 2.15-2.25zm0 6h16.92c1.19 0 2.15 1 2.15 2.24a2.2 2.2 0 0 1-2.15 2.25H62.56c-1.19 0-2.15-1-2.15-2.25a2.2 2.2 0 0 1 2.15-2.25zm0 6h16.92c1.19 0 2.15 1 2.15 2.24a2.2 2.2 0 0 1-2.15 2.25H62.56c-1.19 0-2.15-1-2.15-2.25a2.2 2.2 0 0 1 2.15-2.25zm0 6h16.92c1.19 0 2.15 1 2.15 2.24a2.2 2.2 0 0 1-2.15 2.25H62.56c-1.19 0-2.15-1-2.15-2.25a2.2 2.2 0 0 1 2.15-2.25z"/>
      <g fill-rule="nonzero">
        <path fill="#FFE0F4" d="M96.83 72.69h3.03a4.58 4.58 0 0 1 4.56 4.6v26.06H92.28V77.29c0-2.54 2.04-4.6 4.55-4.6z"/>
        <path fill="#4E0B46" d="M96.83 87.25h3.03a4.58 4.58 0 0 1 4.56 4.6v11.5H92.28v-11.5c0-2.54 2.04-4.6 4.55-4.6z"/>
      </g>
      <g fill-rule="nonzero">
        <path fill="#FFE0F4" d="M118.83 75.75h3.04a4.58 4.58 0 0 1 4.55 4.6v23h-12.14v-23c0-2.54 2.04-4.6 4.55-4.6z"/>
        <path fill="#4E0B46" d="M118.83 89.55h3.04a4.58 4.58 0 0 1 4.55 4.6v9.2h-12.14v-9.2c0-2.54 2.04-4.6 4.55-4.6z"/>
      </g>
      <g fill-rule="nonzero">
        <path fill="#FFE0F4" d="M140.84 67.32h3.04c2.5 0 4.55 2.42 4.55 5.4v30.63h-12.14V72.73c0-2.99 2.04-5.4 4.55-5.4z"/>
        <path fill="#4E0B46" d="M140.84 83.42h3.04a4.58 4.58 0 0 1 4.55 4.6v15.33h-12.14V88.02c0-2.54 2.04-4.6 4.55-4.6z"/>
      </g>
    </g>
  </g>
</svg>
